<mxfile host="65bd71144e">
    <diagram id="Du05sGlNgpWp2bOnYI14" name="Page-1">
        <mxGraphModel dx="929" dy="683" grid="1" gridSize="10" guides="1" tooltips="1" connect="1" arrows="1" fold="1" page="1" pageScale="1" pageWidth="850" pageHeight="1100" math="0" shadow="0">
            <root>
                <mxCell id="0"/>
                <mxCell id="1" parent="0"/>
                <mxCell id="2" value="" style="html=1;shadow=0;dashed=0;fontSize=16;fontColor=#181819;align=left;spacing=15;fillColor=#512da8;strokeWidth=1;strokeColor=#FFFFFF;" vertex="1" parent="1">
                    <mxGeometry width="850" height="60" as="geometry"/>
                </mxCell>
                <mxCell id="3" value="Nhân viên" style="fillColor=none;strokeColor=none;fontSize=14;align=center;fontColor=#FFFFFF;" vertex="1" parent="2">
                    <mxGeometry width="70" height="40" relative="1" as="geometry">
                        <mxPoint x="140" y="10" as="offset"/>
                    </mxGeometry>
                </mxCell>
                <mxCell id="4" value="Phòng ban" style="fillColor=none;strokeColor=none;fontSize=14;align=center;fontColor=#FFFFFF;" vertex="1" parent="2">
                    <mxGeometry width="50" height="40" relative="1" as="geometry">
                        <mxPoint x="240" y="10" as="offset"/>
                    </mxGeometry>
                </mxCell>
                <mxCell id="7" value="Bảng lương" style="fillColor=none;strokeColor=none;fontSize=14;align=center;fontColor=#FFFFFF;" vertex="1" parent="2">
                    <mxGeometry width="80" height="40" relative="1" as="geometry">
                        <mxPoint x="330" y="10" as="offset"/>
                    </mxGeometry>
                </mxCell>
                <mxCell id="15" value="Ứng dụng quản lý nhân sự V1.0" style="fillColor=none;strokeColor=none;fontSize=17;align=center;fontColor=#FFFFFF;spacingLeft=1;strokeWidth=1;" vertex="1" parent="2">
                    <mxGeometry width="250" height="40" relative="1" as="geometry">
                        <mxPoint x="540" y="10" as="offset"/>
                    </mxGeometry>
                </mxCell>
                <mxCell id="16" value="LOGO" style="fillColor=none;strokeColor=none;fontSize=14;align=center;fontColor=#FFFFFF;" vertex="1" parent="1">
                    <mxGeometry width="70" height="40" relative="1" as="geometry">
                        <mxPoint x="60" y="10" as="offset"/>
                    </mxGeometry>
                </mxCell>
                <mxCell id="17" value="ẢNH ĐẠI DIỆN" style="rounded=0;whiteSpace=wrap;html=1;fontSize=17;strokeWidth=1;fillColor=#76608a;fontColor=#ffffff;strokeColor=#FFFFFF;" vertex="1" parent="1">
                    <mxGeometry y="60" width="850" height="580" as="geometry"/>
                </mxCell>
                <mxCell id="19" value="" style="rounded=0;whiteSpace=wrap;html=1;fontSize=17;strokeWidth=1;fontColor=#ffffff;fillColor=#d1c4e9;strokeColor=#FFFFFF;" vertex="1" parent="1">
                    <mxGeometry y="640" width="850" height="200" as="geometry"/>
                </mxCell>
                <mxCell id="20" value="" style="rounded=0;whiteSpace=wrap;html=1;fontSize=17;fontColor=#FFFFFF;strokeWidth=1;fillColor=#D1C4E9;strokeColor=#D1C4E9;" vertex="1" parent="1">
                    <mxGeometry x="60" y="641" width="120" height="199" as="geometry"/>
                </mxCell>
                <mxCell id="21" value="&lt;div style=&quot;text-align: left&quot;&gt;&lt;br&gt;&lt;/div&gt;&lt;br&gt;&lt;br&gt;" style="rounded=0;whiteSpace=wrap;html=1;fontSize=17;fontColor=#FFFFFF;strokeWidth=1;fillColor=#d1c4e9;strokeColor=#D1C4E9;" vertex="1" parent="1">
                    <mxGeometry x="190" y="640" width="380" height="199" as="geometry"/>
                </mxCell>
                <mxCell id="22" value="" style="rounded=0;whiteSpace=wrap;html=1;fontSize=17;fontColor=#FFFFFF;strokeWidth=1;fillColor=#d1c4e9;strokeColor=#D1C4E9;" vertex="1" parent="1">
                    <mxGeometry x="580" y="641" width="210" height="199" as="geometry"/>
                </mxCell>
                <mxCell id="23" value="&lt;font style=&quot;font-size: 24px&quot;&gt;Link&lt;/font&gt;" style="text;html=1;strokeColor=none;fillColor=none;align=center;verticalAlign=middle;whiteSpace=wrap;rounded=0;fontSize=17;fontColor=#FFFFFF;" vertex="1" parent="1">
                    <mxGeometry x="60" y="660" width="60" height="40" as="geometry"/>
                </mxCell>
                <mxCell id="24" value="&lt;font style=&quot;font-size: 24px&quot;&gt;Our Address&lt;/font&gt;" style="text;html=1;strokeColor=none;fillColor=none;align=center;verticalAlign=middle;whiteSpace=wrap;rounded=0;fontSize=17;fontColor=#FFFFFF;" vertex="1" parent="1">
                    <mxGeometry x="190" y="659" width="160" height="40" as="geometry"/>
                </mxCell>
                <mxCell id="25" value="&lt;font style=&quot;font-size: 24px&quot;&gt;Social - Icon&lt;/font&gt;" style="text;html=1;strokeColor=none;fillColor=none;align=center;verticalAlign=middle;whiteSpace=wrap;rounded=0;fontSize=17;fontColor=#FFFFFF;" vertex="1" parent="1">
                    <mxGeometry x="605" y="720" width="160" height="40" as="geometry"/>
                </mxCell>
                <mxCell id="26" value="&lt;span style=&quot;color: rgb(15 , 15 , 15) ; font-family: &amp;#34;times new roman&amp;#34; , &amp;#34;times&amp;#34; , serif ; font-size: 16px ; background-color: rgb(209 , 196 , 233)&quot;&gt;121, Clear Water Bay Road&lt;/span&gt;&lt;br style=&quot;box-sizing: border-box ; margin: 0px ; padding: 0px ; color: rgb(15 , 15 , 15) ; font-family: &amp;#34;times new roman&amp;#34; , &amp;#34;times&amp;#34; , serif ; font-size: 16px ; background-color: rgb(209 , 196 , 233)&quot;&gt;&lt;span style=&quot;color: rgb(15 , 15 , 15) ; font-family: &amp;#34;times new roman&amp;#34; , &amp;#34;times&amp;#34; , serif ; font-size: 16px ; background-color: rgb(209 , 196 , 233)&quot;&gt;Clear Water Bay, Kowloon&lt;/span&gt;&lt;br style=&quot;box-sizing: border-box ; margin: 0px ; padding: 0px ; color: rgb(15 , 15 , 15) ; font-family: &amp;#34;times new roman&amp;#34; , &amp;#34;times&amp;#34; , serif ; font-size: 16px ; background-color: rgb(209 , 196 , 233)&quot;&gt;&lt;span style=&quot;color: rgb(15 , 15 , 15) ; font-family: &amp;#34;times new roman&amp;#34; , &amp;#34;times&amp;#34; , serif ; font-size: 16px ; background-color: rgb(209 , 196 , 233)&quot;&gt;HONG KONG&lt;/span&gt;" style="text;html=1;strokeColor=none;fillColor=none;align=left;verticalAlign=middle;whiteSpace=wrap;rounded=0;fontSize=17;fontColor=#FFFFFF;" vertex="1" parent="1">
                    <mxGeometry x="205" y="729" width="120" height="40" as="geometry"/>
                </mxCell>
                <mxCell id="28" value="&lt;font style=&quot;font-size: 14px&quot; color=&quot;#0000ff&quot;&gt;Nhân viên&lt;/font&gt;" style="text;html=1;strokeColor=none;fillColor=none;align=left;verticalAlign=middle;whiteSpace=wrap;rounded=0;fontSize=17;fontColor=#FFFFFF;" vertex="1" parent="1">
                    <mxGeometry x="60" y="700" width="90" height="40" as="geometry"/>
                </mxCell>
                <mxCell id="29" value="&lt;font style=&quot;font-size: 14px&quot; color=&quot;#0000ff&quot;&gt;Phòng ban&lt;/font&gt;" style="text;html=1;strokeColor=none;fillColor=none;align=left;verticalAlign=middle;whiteSpace=wrap;rounded=0;fontSize=17;fontColor=#FFFFFF;" vertex="1" parent="1">
                    <mxGeometry x="60" y="730" width="110" height="40" as="geometry"/>
                </mxCell>
                <mxCell id="30" value="&lt;font style=&quot;font-size: 14px&quot; color=&quot;#0000ff&quot;&gt;Bảng lương&lt;/font&gt;" style="text;html=1;strokeColor=none;fillColor=none;align=left;verticalAlign=middle;whiteSpace=wrap;rounded=0;fontSize=17;fontColor=#FFFFFF;" vertex="1" parent="1">
                    <mxGeometry x="60" y="760" width="100" height="40" as="geometry"/>
                </mxCell>
            </root>
        </mxGraphModel>
    </diagram>
</mxfile>